<svg width="283" height="283" viewBox="0 0 283 283" fill="none" xmlns="http://www.w3.org/2000/svg">
<path d="M159.744 0C169.59 2.23769 179.361 4.69914 188.759 8.5032C210.539 17.2302 229.261 30.3579 245.074 47.6627C262.081 66.2355 273.717 87.7919 280.132 112.183C281.176 115.987 281.922 119.865 282.817 123.669C282.817 125.161 282.817 126.578 282.817 128.07C280.728 132.546 277.819 134.634 274.015 134.261C269.764 133.888 267.228 131.278 266.109 126.355C265.587 124.042 265.139 121.656 264.542 119.343C259.321 96.8172 248.878 77.051 233.513 59.8208C222.548 47.5135 209.794 37.5931 195.249 29.9104C183.165 23.4957 170.261 19.0949 156.835 16.7081C150.569 15.5892 147.735 11.8597 148.556 6.48929C149.078 3.35653 151.166 1.56637 153.702 0.0745827C155.716 -6.82999e-06 157.73 0 159.744 0Z" fill="black"/>
<path d="M203.304 282.993C186.82 282.62 171.455 278.07 156.462 271.581C130.803 260.467 107.233 245.698 86.2734 227.274C52.3351 197.364 25.1846 162.307 8.70027 119.791C3.32982 105.992 -0.474241 91.8197 0.0478862 76.8272C0.420834 65.1913 4.29949 54.8233 12.5043 46.3947C20.4854 38.2644 28.0935 29.6867 36.8951 22.3769C47.636 13.5007 61.808 13.7245 72.176 23.1228C85.5275 35.2063 98.2823 48.0357 110.366 61.3872C119.093 71.0839 119.093 85.8526 110.739 95.8476C104.772 103.008 97.9839 109.423 91.2709 115.763C89.4062 117.479 89.1078 118.821 90.3012 121.208C95.5971 131.651 102.534 140.9 110.142 149.701C122.3 163.649 135.726 176.106 151.241 186.325C154.597 188.562 158.252 190.278 161.833 192.292C163.623 193.336 164.742 192.889 166.159 191.546C172.723 185.131 178.914 178.269 185.925 172.302C196.442 163.277 211.285 163.277 221.355 172.749C234.632 185.131 247.461 197.961 259.545 211.461C268.197 221.158 268.048 235.255 260.067 245.549C258.053 248.085 256.039 250.546 253.652 252.784C248.431 257.707 243.359 262.779 238.511 268.075C229.038 278.294 217.253 283.216 203.304 282.993ZM205.02 266.285C212.255 266.732 220.087 263.525 226.278 256.588C232.021 250.099 238.436 244.281 244.403 238.015C250.669 231.451 250.669 225.783 244.329 219.293C238.361 213.251 232.394 207.284 226.353 201.317C221.28 196.245 216.208 191.098 211.136 186.101C206.288 181.402 201.44 181.178 196.144 185.355C195.1 186.175 194.204 187.071 193.309 187.966C186.82 194.38 180.48 200.87 173.991 207.284C169.664 211.536 164.369 212.58 159.073 209.82C153.702 207.061 148.257 204.375 143.111 201.093C123.941 188.637 107.531 173.197 93.1356 155.519C85.3037 145.972 78.3669 135.753 73.3694 124.415C70.0875 116.956 70.9079 112.183 76.8005 106.514C77.248 106.066 77.6956 105.619 78.2177 105.171C84.4832 99.577 90.2266 93.5353 96.1192 87.5681C101.937 81.5264 102.012 76.2305 96.1192 70.2634C85.0799 59.0749 73.8915 47.9611 62.7777 36.8472C61.2859 35.3555 59.5703 34.162 57.4818 33.4907C52.1114 31.7752 48.2327 34.535 44.727 37.9661C38.4615 44.0824 32.3452 50.348 26.1542 56.4643C19.9633 62.6552 17.0543 70.0396 16.9797 78.7666C16.9051 90.8501 20.1871 102.188 24.3641 113.302C35.8509 143.883 54.1999 170.213 76.2038 194.082C100.968 220.934 130.132 241.819 163.697 256.364C176.154 261.809 189.058 265.912 205.02 266.285Z" fill="black"/>
<path d="M231.723 127.25C231.723 132.545 228.963 135.977 225.234 136.573C220.907 137.319 217.103 135.38 215.761 131.352C213.971 126.056 213.225 120.462 211.062 115.241C200.47 90.0294 182.046 74.2165 155.343 68.1747C151.166 67.205 147.437 66.0862 146.318 61.3125C144.975 55.8674 149.078 50.7953 154.746 51.1683C160.192 51.4667 165.413 53.033 170.485 54.9724C201.514 66.4592 221.355 88.2393 230.231 120.089C230.977 122.774 231.723 125.534 231.723 127.25Z" fill="black"/>
</svg>
